# xmcd
#
# Track frame offsets: 
#        150
#        17224
#        33815
#        48295
#        64851
#        79086
#        94157
#        108624
#        119021
#        132856
#        150006
#        165324
#        181094
#        199768
#        216197
#        230469
#        248254
#        260482
#        279879
#        295038
#        315527
#        329413
#
# Disc length: 4533 seconds
#
# Revision: 1
# Processed by: cddbd v1.5.2PL0 Copyright (c) Steve Scherf et al.
# Submitted via: ExactAudioCopy v0.95b1
#
DISCID=2111b316
DTITLE=Various Artist - Elmari Tantsuõhtu 16
DYEAR=2011
DGENRE=Pop
TTITLE0=Shanon - Tuhat ja üks ööd
TTITLE1=Laura - Kustuta kuuvalgus
TTITLE2=Regatt - Suvepäev
TTITLE3=Lauris Reiniks and Luisa Värk - Linnamuinasjutt
TTITLE4=Mait Maltis - Muusika ühendab me käed
TTITLE5=Heleri - Päikese all
TTITLE6=Traffic - Leidmatu
TTITLE7=Lenna - Vana klaver (Suusabaasis on tantsupidu...)
TTITLE8=Uku Suviste - Jagatud öö
TTITLE9=Respekt - Ei tea
TTITLE10=Ain Tammesson - Tee
TTITLE11=Marco - Deemon
TTITLE12=Erich Krieger - Musta pori näkku (Sõidulaul)
TTITLE13=Henri Tali - Suvine tee
TTITLE14=Birgit Õigemeel - Parem on ees
TTITLE15=Anmatino - Langend mees
TTITLE16=Luisa Värk - Kodu
TTITLE17=Alen Veziko - Ei ole öeldud lihtsalt tuulde
TTITLE18=Anne Veski - Ma saadan ta
TTITLE19=Sobe - Meri
TTITLE20=Aiki - Kas mäletad
TTITLE21=Trobikond - Õnn pöördub (a'capella)
EXTD=
EXTT0=
EXTT1=
EXTT2=
EXTT3=
EXTT4=
EXTT5=
EXTT6=
EXTT7=
EXTT8=
EXTT9=
EXTT10=
EXTT11=
EXTT12=
EXTT13=
EXTT14=
EXTT15=
EXTT16=
EXTT17=
EXTT18=
EXTT19=
EXTT20=
EXTT21=
PLAYORDER=
